g Body_01
v -4.4 6.4 -0.6 0.494118 0.494118 0.52549
v 4.4 6.4 -0.6 0.494118 0.494118 0.52549
v 4.4 -6.4 -0.6 0.494118 0.494118 0.52549
v -4.4 -6.4 -0.6 0.494118 0.494118 0.52549
v -4.4 -6.4 5 0.494118 0.494118 0.52549
v -4.4 6.4 5 0.494118 0.494118 0.52549
v 4.4 6.4 5 0.494118 0.494118 0.52549
v 4.4 -6.4 5 0.494118 0.494118 0.52549
v -4 6 5 0.494118 0.494118 0.52549
v 4 6 5 0.494118 0.494118 0.52549
v -4 -6 5 0.494118 0.494118 0.52549
v 4 -6 5 0.494118 0.494118 0.52549
v -4 -6 0 0.494118 0.494118 0.52549
v -4 6 0 0.494118 0.494118 0.52549
v 4 -6 0 0.494118 0.494118 0.52549
v 4 6 0 0.494118 0.494118 0.52549
v -2.5 -6.4 4.2 0.494118 0.494118 0.52549
v -2.5 -6.4 2.4 0.494118 0.494118 0.52549
v 2.5 -6.4 2.4 0.494118 0.494118 0.52549
v 2.5 -6.4 4.2 0.494118 0.494118 0.52549
v 2.5 -6 4.2 0.494118 0.494118 0.52549
v -2.5 -6 4.2 0.494118 0.494118 0.52549
v 2.5 -6 2.4 0.494118 0.494118 0.52549
v -2.5 -6 2.4 0.494118 0.494118 0.52549
vn -0 -0 -1
vn -1 -0 0
vn -2.01859e-16 1 -0
vn 1 1.38778e-16 -0
vn 0 0 1
vn -1 -7.40149e-17 0
vn 2.22045e-16 -1 -0
vn -4.44089e-16 1 -0
vn -0 -0 -1
vn -1 -4.03717e-16 0
vn -1.11022e-16 -4.48216e-32 1
vn 1 4.03717e-16 0
vt -4.4 6.4
vt 4.4 6.4
vt 4.4 -6.4
vt -4.4 -6.4
vt -0 -6.4
vt 0 6.4
vt 5.6 6.4
vt 5.6 -6.4
vt -4.4 0
vt 4.4 0
vt 4.4 -5.6
vt -4.4 -5.6
vt 6.4 0
vt -6.4 0
vt -6.4 -5.6
vt 6.4 -5.6
vt -4.4 6.4
vt -4 6
vt 4 6
vt -4.4 -6.4
vt -4 -6
vt 4.4 -6.4
vt 4 -6
vt 4.4 6.4
vt 0 -6
vt -5 -6
vt -5 6
vt 0 6
vt 4 -6
vt 4 6
vt -4 6
vt -4 -6
vt 6 0
vt 6 -5
vt -6 -5
vt -6 0
vt 4 0
vt 4 -5
vt -4 -5
vt -4 0
vt -4.4 0
vt 4.4 0
vt 2.5 -0.8
vt 4.4 -5.6
vt 2.5 -2.6
vt -4.4 -5.6
vt -2.5 -2.6
vt -2.5 -0.8
vt 4 0
vt 2.5 -0.8
vt -2.5 -0.8
vt 4 -5
vt 2.5 -2.6
vt -4 -5
vt -2.5 -2.6
vt -4 0
vt -2.5 -1.2
vt 2.5 -1.2
vt 2.5 -1.6
vt -2.5 -1.6
vt -1.2 0.9
vt -1.2 -0.9
vt -1.6 -0.9
vt -1.6 0.9
vt 2.5 -1.2
vt 2.5 -1.6
vt -2.5 -1.6
vt -2.5 -1.2
vt 1.2 -0.9
vt 1.2 0.9
vt 1.6 0.9
vt 1.6 -0.9
f 1/1/1 2/2/1 3/3/1
f 3/3/1 4/4/1 1/1/1
f 5/5/2 6/6/2 1/7/2
f 1/7/2 4/8/2 5/5/2
f 6/9/3 7/10/3 2/11/3
f 2/11/3 1/12/3 6/9/3
f 7/13/4 8/14/4 3/15/4
f 3/15/4 2/16/4 7/13/4
f 6/17/5 9/18/5 10/19/5
f 5/20/5 11/21/5 9/18/5
f 9/18/5 6/17/5 5/20/5
f 8/22/5 12/23/5 11/21/5
f 11/21/5 5/20/5 8/22/5
f 8/22/5 7/24/5 10/19/5
f 10/19/5 12/23/5 8/22/5
f 10/19/5 7/24/5 6/17/5
f 11/25/4 13/26/4 14/27/4
f 14/27/4 9/28/4 11/25/4
f 15/29/5 16/30/5 14/31/5
f 14/31/5 13/32/5 15/29/5
f 10/33/6 16/34/6 15/35/6
f 15/35/6 12/36/6 10/33/6
f 9/37/7 14/38/7 16/39/7
f 16/39/7 10/40/7 9/37/7
f 8/41/7 5/42/7 17/43/7
f 5/42/7 4/44/7 18/45/7
f 3/46/7 19/47/7 18/45/7
f 8/41/7 20/48/7 19/47/7
f 18/45/7 17/43/7 5/42/7
f 19/47/7 3/46/7 8/41/7
f 18/45/7 4/44/7 3/46/7
f 17/43/7 20/48/7 8/41/7
f 12/49/8 21/50/8 22/51/8
f 12/49/8 15/52/8 23/53/8
f 23/53/8 21/50/8 12/49/8
f 15/52/8 13/54/8 24/55/8
f 24/55/8 23/53/8 15/52/8
f 11/56/8 22/51/8 24/55/8
f 24/55/8 13/54/8 11/56/8
f 22/51/8 11/56/8 12/49/8
f 22/57/9 21/58/9 20/59/9
f 20/59/9 17/60/9 22/57/9
f 21/61/10 23/62/10 19/63/10
f 19/63/10 20/64/10 21/61/10
f 24/65/11 18/66/11 19/67/11
f 19/67/11 23/68/11 24/65/11
f 24/69/12 22/70/12 17/71/12
f 17/71/12 18/72/12 24/69/12
